<mxfile host="app.diagrams.net" modified="2023-09-28T10:13:30.102Z" agent="Mozilla/5.0 (Windows NT 10.0; Win64; x64) AppleWebKit/537.36 (KHTML, like Gecko) Chrome/116.0.0.0 Safari/537.36" etag="HspVEYis-AkIzFAv82yL" version="21.8.2" type="device">
  <diagram id="R2lEEEUBdFMjLlhIrx00" name="Page-1">
    <mxGraphModel dx="1050" dy="534" grid="1" gridSize="10" guides="1" tooltips="1" connect="1" arrows="1" fold="1" page="1" pageScale="1" pageWidth="850" pageHeight="1100" math="0" shadow="0" extFonts="Permanent Marker^https://fonts.googleapis.com/css?family=Permanent+Marker">
      <root>
        <mxCell id="0" />
        <mxCell id="1" parent="0" />
        <mxCell id="27FBeaQJGYEP46KHjfXw-14" style="edgeStyle=orthogonalEdgeStyle;rounded=0;orthogonalLoop=1;jettySize=auto;html=1;entryX=0.5;entryY=0;entryDx=0;entryDy=0;" edge="1" parent="1" source="27FBeaQJGYEP46KHjfXw-1" target="27FBeaQJGYEP46KHjfXw-7">
          <mxGeometry relative="1" as="geometry" />
        </mxCell>
        <mxCell id="27FBeaQJGYEP46KHjfXw-15" style="edgeStyle=orthogonalEdgeStyle;rounded=0;orthogonalLoop=1;jettySize=auto;html=1;" edge="1" parent="1" source="27FBeaQJGYEP46KHjfXw-1" target="27FBeaQJGYEP46KHjfXw-9">
          <mxGeometry relative="1" as="geometry" />
        </mxCell>
        <mxCell id="27FBeaQJGYEP46KHjfXw-1" value="Startsida" style="rounded=0;whiteSpace=wrap;html=1;" vertex="1" parent="1">
          <mxGeometry x="465" y="180" width="120" height="60" as="geometry" />
        </mxCell>
        <mxCell id="27FBeaQJGYEP46KHjfXw-4" style="edgeStyle=orthogonalEdgeStyle;rounded=0;orthogonalLoop=1;jettySize=auto;html=1;" edge="1" parent="1" source="27FBeaQJGYEP46KHjfXw-2" target="27FBeaQJGYEP46KHjfXw-1">
          <mxGeometry relative="1" as="geometry" />
        </mxCell>
        <mxCell id="27FBeaQJGYEP46KHjfXw-5" style="edgeStyle=orthogonalEdgeStyle;rounded=0;orthogonalLoop=1;jettySize=auto;html=1;" edge="1" parent="1" source="27FBeaQJGYEP46KHjfXw-2" target="27FBeaQJGYEP46KHjfXw-3">
          <mxGeometry relative="1" as="geometry" />
        </mxCell>
        <mxCell id="27FBeaQJGYEP46KHjfXw-2" value="Inloggad?" style="rhombus;whiteSpace=wrap;html=1;" vertex="1" parent="1">
          <mxGeometry x="385" y="60" width="80" height="80" as="geometry" />
        </mxCell>
        <mxCell id="27FBeaQJGYEP46KHjfXw-6" style="edgeStyle=orthogonalEdgeStyle;rounded=0;orthogonalLoop=1;jettySize=auto;html=1;entryX=0;entryY=0.5;entryDx=0;entryDy=0;" edge="1" parent="1" source="27FBeaQJGYEP46KHjfXw-3" target="27FBeaQJGYEP46KHjfXw-1">
          <mxGeometry relative="1" as="geometry" />
        </mxCell>
        <mxCell id="27FBeaQJGYEP46KHjfXw-3" value="Inloggningssida" style="rounded=0;whiteSpace=wrap;html=1;" vertex="1" parent="1">
          <mxGeometry x="265" y="180" width="120" height="60" as="geometry" />
        </mxCell>
        <mxCell id="27FBeaQJGYEP46KHjfXw-11" style="edgeStyle=orthogonalEdgeStyle;rounded=0;orthogonalLoop=1;jettySize=auto;html=1;" edge="1" parent="1" source="27FBeaQJGYEP46KHjfXw-7" target="27FBeaQJGYEP46KHjfXw-10">
          <mxGeometry relative="1" as="geometry" />
        </mxCell>
        <mxCell id="27FBeaQJGYEP46KHjfXw-13" style="edgeStyle=orthogonalEdgeStyle;rounded=0;orthogonalLoop=1;jettySize=auto;html=1;" edge="1" parent="1" source="27FBeaQJGYEP46KHjfXw-7" target="27FBeaQJGYEP46KHjfXw-12">
          <mxGeometry relative="1" as="geometry" />
        </mxCell>
        <mxCell id="27FBeaQJGYEP46KHjfXw-7" value="Existerande Service" style="rounded=0;whiteSpace=wrap;html=1;" vertex="1" parent="1">
          <mxGeometry x="381" y="290" width="120" height="60" as="geometry" />
        </mxCell>
        <mxCell id="27FBeaQJGYEP46KHjfXw-9" value="Skapa ny service" style="rounded=0;whiteSpace=wrap;html=1;" vertex="1" parent="1">
          <mxGeometry x="550" y="290" width="120" height="60" as="geometry" />
        </mxCell>
        <mxCell id="27FBeaQJGYEP46KHjfXw-10" value="GÃ¶r en ny bokning" style="rounded=0;whiteSpace=wrap;html=1;" vertex="1" parent="1">
          <mxGeometry x="305" y="410" width="120" height="60" as="geometry" />
        </mxCell>
        <mxCell id="27FBeaQJGYEP46KHjfXw-12" value="Specifik bokningar" style="rounded=0;whiteSpace=wrap;html=1;" vertex="1" parent="1">
          <mxGeometry x="450" y="410" width="120" height="60" as="geometry" />
        </mxCell>
      </root>
    </mxGraphModel>
  </diagram>
</mxfile>
